<svg xmlns="http://www.w3.org/2000/svg" width="432.004" height="90.635"><path fill="#00703C" d="M254.492 30.922c-.234-1.43-.363-2.9-.363-4.4v-.146C254.129 11.877 265.57 0 281.305 0c15.738 0 27.031 11.73 27.031 26.23v.145c0 5.32-1.598 10.271-4.516 14.496l.012.008a229.16 229.16 0 0 1-18.766-2.316L292 30.641l3.082 2.715c.988-2.15 1.523-4.641 1.523-7.338v-.143c0-8.547-6.266-15.527-15.301-15.527h-.145c-9.035 0-15.301 6.98-15.301 15.527v.143c0 3.377.992 6.529 2.746 9.111a173.692 173.692 0 0 1-14.112-4.207zm92.281 9.894c3.516-.287 6.996-.641 10.438-1.057 1.027-2.881 1.566-6.248 1.566-10.105V.875h-11.219V30.09c0 5.605-1.996 9.318-5.5 11.072 1.567-.103 3.141-.217 4.715-.346zm31.102-4.373V.875h-11.223v37.578a262.125 262.125 0 0 0 11.223-2.01zm19.883-4.873V19.453l7.473 9.809a213.36 213.36 0 0 0 10.539-3.766L397.031.875h-10.348V34.5c3.77-.9 7.462-1.879 11.075-2.93zm-65.559 10.051c-4.211-1.531-6.645-5.539-6.645-11.895V.875h-11.219V30.02c0 4.537.77 8.396 2.215 11.582 5.134.16 10.356.169 15.649.019zm54.485-2.068v12.322h11.074V37.586a366.246 366.246 0 0 1-11.074 1.967zm-20.032 2.695v9.627h11.223V40.871c-3.699.508-7.441.969-11.223 1.377zm-11.714 1.088a384.895 384.895 0 0 1-36.785 1.121c3.727 5.457 10.031 8.219 18.258 8.219 8.766 0 15.469-3.107 19.16-9.391l-.633.051zm-75.946-1.799c-.09-.014-.18-.023-.266-.037-7.727-1.053-15.148-2.371-22.215-3.93 4.105 8.969 13.199 15.18 24.648 15.18a28.105 28.105 0 0 0 15.223-4.449l8.051 7.197 7.184-8.137-3.895-3.244c-9.945-.467-19.55-1.338-28.73-2.58zm141.938-9.26-.004-.002a333.197 333.197 0 0 1-11.27 2.797l12.801 16.803h9.547V29.102a311.539 311.539 0 0 1-11.074 3.174v.001zm0-31.402v22.541a185.784 185.784 0 0 0 11.074-5.082V.875H420.93zM92.637 16.307c3.938-.24 7.84-.428 11.711-.566 2.672-3.293 6.582-5.393 10.98-5.393 5.902 0 9.402 1.893 13.336 5.172l7.066-8.523C130.41 2.477 124.875 0 115.695 0c-11.699 0-21.008 6.816-24.84 16.42.594-.039 1.188-.076 1.782-.113zm64.105.713c2.66-4.033 7.125-6.672 12.617-6.672 6.91 0 12.281 4.262 14.426 10.174 4.336.756 8.527 1.588 12.555 2.492C194.805 10.035 184.059 0 169.504 0c-11.793 0-21.172 6.672-25.133 16.119 4.199.238 8.328.539 12.371.901zm-88.465 1.429V.875H57.059v19.016a429.318 429.318 0 0 1 11.218-1.442zm168.442 13.828-.004-.004L212.82.875h-10.344V24.48c3.863.98 7.559 2.035 11.074 3.156v-8.184l24.695 32.422h9.547V35.477a208.222 208.222 0 0 1-11.074-3.203v.003zm-34.242 19.598h11.074V36.887a146.487 146.487 0 0 0-11.074-4.811v19.799zm34.242-51v22.539a131.587 131.587 0 0 0 11.074 5.014V.875h-11.074zm-51.914 25.441v.205c0 8.742-6.266 15.883-15.301 15.883-9.031 0-15.445-7.287-15.445-16.029v-.145c0-2.035.344-3.979.98-5.77-3.844-.5-7.758-.916-11.73-1.25a26.602 26.602 0 0 0-.98 7.164v.146c0 14.498 11.293 26.229 27.031 26.229 14.465 0 25.293-10.035 26.949-22.918a186.987 186.987 0 0 0-11.504-3.515zm-69.403 5.887h11.293v7.285c-2.84 2.043-6.484 3.063-10.563 3.063-9.035 0-15.445-6.85-15.445-16.176v-.145c0-2.691.621-5.242 1.727-7.479-2.109.123-4.23.266-6.359.434-2.105.168-4.203.357-6.285.566a27.219 27.219 0 0 0-.813 6.623v.146c0 15.08 10.926 26.229 26.813 26.229 9.324 0 16.535-3.643 21.781-8.088V22.514h-22.148v9.689zm-47.125-9.508a285.17 285.17 0 0 0-11.219 2.191v26.988h31.863V41.32H68.277V22.695zM3.824 42.891 0 51.875h11.438L15.75 41.32h22.273l4.309 10.555h11.73L43.934 28.074c-14.672 3.957-28.176 8.977-40.11 14.817zm17.914-16.334 5.148-12.568 4.273 10.445a370.743 370.743 0 0 1 10.359-2.031L32.203.512H21.859L9.402 29.781a314.433 314.433 0 0 1 12.336-3.224zM244.5 90.635c5.566 0 8.965-2.039 12.07-5.268l-3.359-3.4c-2.551 2.381-4.887 3.867-8.543 3.867-5.695 0-9.816-4.76-9.816-10.582v-.086c0-5.822 4.121-10.496 9.816-10.496 3.402 0 5.949 1.486 8.332 3.697l3.355-3.867c-2.848-2.721-6.16-4.633-11.645-4.633-9.008 0-15.34 6.928-15.34 15.385v.084c.001 8.543 6.458 15.299 15.13 15.299zm30.328 0c9.137 0 15.598-7.012 15.598-15.383v-.086c0-8.371-6.375-15.299-15.512-15.299s-15.598 7.012-15.598 15.385v.084c0 8.371 6.375 15.299 15.512 15.299zm.086-4.801c-5.91 0-10.117-4.803-10.117-10.582v-.086c0-5.779 4.125-10.496 10.031-10.496s10.113 4.803 10.113 10.582v.084c0 5.779-4.121 10.498-10.027 10.498zm20.902 4.291h20.867v-4.758h-15.641v-24.99h-5.227v29.748zm26.278 0h20.867v-4.758H327.32v-24.99h-5.227v29.748zm26.273 0h22.27v-4.674h-17.039v-7.99h14.914v-4.676h-14.914v-7.734h16.828v-4.674h-22.059v29.748zm42.188.51c5.27 0 9.477-2.123 12.41-4.631V73.51h-12.664v4.547h7.605v5.566c-1.824 1.361-4.375 2.252-7.18 2.252-6.078 0-10.117-4.504-10.117-10.623v-.086c0-5.693 4.164-10.496 9.648-10.496 3.781 0 6.035 1.232 8.332 3.188l3.313-3.953c-3.059-2.592-6.246-4.037-11.434-4.037-8.965 0-15.34 7.055-15.34 15.385v.084c.001 8.671 6.118 15.298 15.427 15.298zm19.179-.51h22.27v-4.674h-17.043v-7.99h14.918v-4.676h-14.918v-7.734h16.828v-4.674h-22.055v29.748z"/></svg>