<svg xmlns="http://www.w3.org/2000/svg" viewBox="0 0 348.94 44.52"><defs><style>.cls-1{fill:#7b2980;}</style></defs><g id="Layer_2" data-name="Layer 2"><g id="Adrenal_Insufficiency" data-name="Adrenal Insufficiency"><path class="cls-1" d="M34.69,31.8a4.29,4.29,0,0,0-1.33.16,55.26,55.26,0,0,1-15.18,1.92c-3.48-.12-6.1-.77-7.58-1.89a3.9,3.9,0,0,1-1.55-3.4C8.69,18.33,24.31,11.91,30.36,10.3a4.16,4.16,0,0,0,2.63-2,4.41,4.41,0,0,0,.35-3.49A4.84,4.84,0,0,0,29,1.36a4.62,4.62,0,0,0-1.28.15C26.52,1.82-.68,9.22,0,28.48a13.5,13.5,0,0,0,5.4,10.7c3.1,2.32,7.49,3.6,13,3.79.51,0,1,0,1.52,0h0a65.46,65.46,0,0,0,16.17-2.27,4.17,4.17,0,0,0,2.6-2.06,4.46,4.46,0,0,0,.31-3.51,4.76,4.76,0,0,0-4.36-3.35"/><path class="cls-1" d="M100.36,34h-.15l-15.68.5,0-7.14,13.3-1.18a3.92,3.92,0,0,0,2.75-1.44,4,4,0,0,0,.87-3.07,4.43,4.43,0,0,0-4.19-3.86,2.58,2.58,0,0,0-.48,0l-12.3,1.1-.05-7.21,14-1.45a3.9,3.9,0,0,0,2.72-1.48,4,4,0,0,0,.81-3.09,4.41,4.41,0,0,0-4.25-3.79,2.57,2.57,0,0,0-.48,0l-17,1.77h0l-.16,0-.12,0A4.43,4.43,0,0,0,76,7.54c0,.07,0,.13,0,.18s0,.21,0,.29l.23,31a3.89,3.89,0,0,0,1.22,2.85,4.63,4.63,0,0,0,3,1.09c.27,0,.67,0,.69,0l19.64-.63a3.89,3.89,0,0,0,2.83-1.3,4,4,0,0,0,1-3A4.44,4.44,0,0,0,100.36,34Z"/><path class="cls-1" d="M125.2,1.37a21.2,21.2,0,0,0-16,6.19,19.26,19.26,0,0,0-5.58,13.84c.16,11.46,10.1,21.13,22.17,21.55h.81a21.15,21.15,0,0,0,15.22-6.19,19.21,19.21,0,0,0,5.57-13.86c-.15-11.46-10.1-21.12-22.16-21.54m10.53,29.07a13.4,13.4,0,0,1-10.08,3.81c-7.41-.25-13.51-5.89-13.6-12.57a10.84,10.84,0,0,1,3.18-7.8,13.43,13.43,0,0,1,9.55-3.82h.53c7.41.26,13.52,5.89,13.61,12.56a10.85,10.85,0,0,1-3.19,7.81"/><path class="cls-1" d="M71.44,25.74l-.18-8.42L71,7.64a4.46,4.46,0,0,0-4.26-4.3h-.11a3.95,3.95,0,0,0-4,4.09L62.93,18c-4.29.39-8.53.84-12.59,1.32l.07-14.9A4.48,4.48,0,0,0,46.2,0a3.91,3.91,0,0,0-4.14,4L42,19.6,39.7,20a3.8,3.8,0,0,0-2.55,1.61,4,4,0,0,0-.6,3.08,4.25,4.25,0,0,0,5,3.37h.06l.4-.06v1L41.9,39.86a4.42,4.42,0,0,0,4.23,4.4,3.94,3.94,0,0,0,4.12-4l.06-12.48c4.27-.53,8.58-1,12.81-1.38l.41,13.78a4.47,4.47,0,0,0,4.26,4.31h.11a4,4,0,0,0,4-4.09Z"/><path class="cls-1" d="M167,12v4.45h-2.12V5.07h3.48a7.18,7.18,0,0,1,2,.24,3.81,3.81,0,0,1,1.37.67,2.65,2.65,0,0,1,.78,1,3.6,3.6,0,0,1,.08,2.41,3.44,3.44,0,0,1-.49.93,3.29,3.29,0,0,1-.79.74,4.22,4.22,0,0,1-1.07.5,2.15,2.15,0,0,1,.7.65l2.85,4.21H171.9a.88.88,0,0,1-.47-.11,1,1,0,0,1-.32-.31l-2.4-3.65a.75.75,0,0,0-.3-.29,1,1,0,0,0-.47-.09Zm0-1.52h1.33a3.3,3.3,0,0,0,1-.15,1.92,1.92,0,0,0,.73-.42,1.48,1.48,0,0,0,.43-.62,2.07,2.07,0,0,0,.14-.8,1.61,1.61,0,0,0-.57-1.33,2.72,2.72,0,0,0-1.74-.46H167Z"/><path class="cls-1" d="M182.19,5.07V6.75h-5.05V9.91h4v1.63h-4v3.23h5.05v1.69H175V5.07Z"/><path class="cls-1" d="M190,7.14a.55.55,0,0,1-.2.24.5.5,0,0,1-.27.07.73.73,0,0,1-.36-.12l-.46-.27a3.72,3.72,0,0,0-.63-.27,2.66,2.66,0,0,0-.84-.12,2.52,2.52,0,0,0-.77.1,1.45,1.45,0,0,0-.55.3,1.15,1.15,0,0,0-.34.45,1.58,1.58,0,0,0-.11.58,1.06,1.06,0,0,0,.22.67,1.91,1.91,0,0,0,.6.46,6.67,6.67,0,0,0,.84.34c.32.1.64.2,1,.32a8,8,0,0,1,1,.39,3.33,3.33,0,0,1,.85.57,2.7,2.7,0,0,1,.59.84,2.89,2.89,0,0,1,.23,1.2,3.86,3.86,0,0,1-.27,1.45,3.18,3.18,0,0,1-.77,1.17,3.52,3.52,0,0,1-1.24.79,4.62,4.62,0,0,1-1.68.29,5.47,5.47,0,0,1-1.07-.11,5.61,5.61,0,0,1-1-.3,5.2,5.2,0,0,1-.91-.47,4.58,4.58,0,0,1-.75-.62l.61-1a.91.91,0,0,1,.21-.18.5.5,0,0,1,.27-.08.76.76,0,0,1,.43.17l.54.35a3.31,3.31,0,0,0,.73.36,2.78,2.78,0,0,0,1,.16,2.14,2.14,0,0,0,1.41-.42,1.56,1.56,0,0,0,.49-1.24,1.13,1.13,0,0,0-.22-.73,1.82,1.82,0,0,0-.6-.48,4.09,4.09,0,0,0-.84-.33c-.32-.08-.64-.18-1-.29a6.61,6.61,0,0,1-1-.38,2.88,2.88,0,0,1-.85-.57,2.71,2.71,0,0,1-.59-.89,3.34,3.34,0,0,1-.23-1.31A3.2,3.2,0,0,1,183.71,7a3.06,3.06,0,0,1,.73-1,3.28,3.28,0,0,1,1.17-.73,4.12,4.12,0,0,1,1.58-.28,5.34,5.34,0,0,1,1.86.32,4.15,4.15,0,0,1,1.45.88Z"/><path class="cls-1" d="M199.36,5.07V6.75h-5.05V9.91h4v1.63h-4v3.23h5.05v1.69h-7.19V5.07Z"/><path class="cls-1" d="M211.06,16.46h-1.64a.68.68,0,0,1-.46-.14.71.71,0,0,1-.25-.34l-.85-2.32h-4.73L202.28,16a.74.74,0,0,1-.24.33.73.73,0,0,1-.46.15h-1.65l4.48-11.39h2.17Zm-7.38-4.3h3.63l-1.38-3.79q-.1-.26-.21-.6c-.08-.23-.16-.47-.23-.74-.07.27-.14.52-.22.75s-.14.43-.2.6Z"/><path class="cls-1" d="M214.26,12v4.45h-2.12V5.07h3.48a7.3,7.3,0,0,1,2,.24A3.76,3.76,0,0,1,219,6a2.56,2.56,0,0,1,.78,1A3.34,3.34,0,0,1,220,8.34a3.51,3.51,0,0,1-.17,1.09,3.19,3.19,0,0,1-.49.93,3.29,3.29,0,0,1-.79.74,4.22,4.22,0,0,1-1.07.5,2.15,2.15,0,0,1,.7.65L221,16.46h-1.91a.88.88,0,0,1-.47-.11,1,1,0,0,1-.32-.31l-2.4-3.65a.8.8,0,0,0-.29-.29,1,1,0,0,0-.48-.09Zm0-1.52h1.33a3.26,3.26,0,0,0,1-.15,1.92,1.92,0,0,0,.73-.42,1.48,1.48,0,0,0,.43-.62,2.07,2.07,0,0,0,.15-.8,1.59,1.59,0,0,0-.58-1.33,2.72,2.72,0,0,0-1.74-.46h-1.36Z"/><path class="cls-1" d="M229.69,13.77a.39.39,0,0,1,.3.14l.84.91a4.51,4.51,0,0,1-1.71,1.31,6.39,6.39,0,0,1-4.71,0,5,5,0,0,1-1.73-1.2,5.35,5.35,0,0,1-1.1-1.85,7,7,0,0,1-.38-2.34,6.38,6.38,0,0,1,.42-2.35,5.64,5.64,0,0,1,1.2-1.84,5.58,5.58,0,0,1,1.85-1.2,6.3,6.3,0,0,1,2.38-.43,5.67,5.67,0,0,1,2.22.41,5.25,5.25,0,0,1,1.62,1.07l-.71,1a.61.61,0,0,1-.16.16.41.41,0,0,1-.27.07.59.59,0,0,1-.37-.14c-.13-.09-.29-.2-.48-.31a3.77,3.77,0,0,0-.74-.3A3.59,3.59,0,0,0,227,6.74a3.94,3.94,0,0,0-1.48.28,3.35,3.35,0,0,0-1.15.8,3.59,3.59,0,0,0-.76,1.27,4.88,4.88,0,0,0-.27,1.67,5,5,0,0,0,.27,1.71,3.87,3.87,0,0,0,.74,1.27,3,3,0,0,0,1.09.78,3.4,3.4,0,0,0,1.36.27,4.65,4.65,0,0,0,.78,0,3.25,3.25,0,0,0,.65-.15,2.57,2.57,0,0,0,.56-.26,3.62,3.62,0,0,0,.52-.4l.17-.11A.37.37,0,0,1,229.69,13.77Z"/><path class="cls-1" d="M241.89,16.46h-2.14v-5h-5.34v5h-2.14V5.07h2.14V10h5.34V5.07h2.14Z"/><path class="cls-1" d="M249.3,16.46h-2.13V5.07h2.13Z"/><path class="cls-1" d="M253.05,5.08a.42.42,0,0,1,.17,0,.44.44,0,0,1,.15.1,1,1,0,0,1,.16.18l6,7.62a5.29,5.29,0,0,1,0-.54c0-.18,0-.34,0-.5V5.07h1.87V16.46h-1.09a.88.88,0,0,1-.42-.08.82.82,0,0,1-.32-.28l-6-7.59,0,.5c0,.17,0,.32,0,.45v7h-1.86V5.07h1.34Z"/><path class="cls-1" d="M269.57,7.14a.49.49,0,0,1-.2.24.47.47,0,0,1-.27.07.67.67,0,0,1-.35-.12l-.47-.27a3.72,3.72,0,0,0-.63-.27,2.66,2.66,0,0,0-.84-.12,2.52,2.52,0,0,0-.77.1,1.53,1.53,0,0,0-.55.3,1.25,1.25,0,0,0-.34.45,1.58,1.58,0,0,0-.11.58,1,1,0,0,0,.23.67,1.86,1.86,0,0,0,.59.46,6.67,6.67,0,0,0,.84.34c.32.1.64.2,1,.32a8.93,8.93,0,0,1,1,.39,3.46,3.46,0,0,1,.84.57,2.55,2.55,0,0,1,.59.84,2.89,2.89,0,0,1,.23,1.2,3.86,3.86,0,0,1-.27,1.45,3.18,3.18,0,0,1-.77,1.17,3.52,3.52,0,0,1-1.24.79,4.62,4.62,0,0,1-1.68.29,5.47,5.47,0,0,1-1.07-.11,5.61,5.61,0,0,1-1-.3,5.2,5.2,0,0,1-.91-.47,4.58,4.58,0,0,1-.75-.62l.61-1a.91.91,0,0,1,.21-.18.5.5,0,0,1,.27-.08.76.76,0,0,1,.43.17l.54.35a3.31,3.31,0,0,0,.73.36,2.8,2.8,0,0,0,1,.16,2.11,2.11,0,0,0,1.4-.42,1.56,1.56,0,0,0,.49-1.24,1.13,1.13,0,0,0-.22-.73,1.82,1.82,0,0,0-.6-.48,4.09,4.09,0,0,0-.84-.33c-.31-.08-.63-.18-1-.29a6.61,6.61,0,0,1-1-.38,2.71,2.71,0,0,1-.84-.57,2.59,2.59,0,0,1-.6-.89,3.34,3.34,0,0,1-.23-1.31A3.2,3.2,0,0,1,263.3,7,3.06,3.06,0,0,1,264,6a3.47,3.47,0,0,1,1.17-.73,4.12,4.12,0,0,1,1.58-.28,5.26,5.26,0,0,1,1.86.32,4.15,4.15,0,0,1,1.45.88Z"/><path class="cls-1" d="M279.8,5.07V6.81h-3.43v9.65h-2.12V6.81H270.8V5.07Z"/><path class="cls-1" d="M283.37,16.46h-2.13V5.07h2.13Z"/><path class="cls-1" d="M293.81,5.07V6.81h-3.43v9.65h-2.12V6.81h-3.44V5.07Z"/><path class="cls-1" d="M299.58,14.75a2.92,2.92,0,0,0,1.1-.2,2.22,2.22,0,0,0,.82-.58,2.35,2.35,0,0,0,.52-.9,3.91,3.91,0,0,0,.17-1.18V5.07h2.12v6.82a5.41,5.41,0,0,1-.32,1.88,4.24,4.24,0,0,1-2.44,2.47,5.72,5.72,0,0,1-3.94,0,4.35,4.35,0,0,1-1.48-1,4.25,4.25,0,0,1-.94-1.49,5.19,5.19,0,0,1-.33-1.88V5.07H297v6.81a3.72,3.72,0,0,0,.18,1.19,2.64,2.64,0,0,0,.51.9,2.27,2.27,0,0,0,.81.58A3,3,0,0,0,299.58,14.75Z"/><path class="cls-1" d="M314.35,5.07V6.81h-3.43v9.65H308.8V6.81h-3.45V5.07Z"/><path class="cls-1" d="M322.72,5.07V6.75h-5.05V9.91h4v1.63h-4v3.23h5.05v1.69h-7.18V5.07Z"/><path class="cls-1" d="M167.23,39.26H165.1V27.86h2.13Z"/><path class="cls-1" d="M171,27.87a.48.48,0,0,1,.17.05.65.65,0,0,1,.15.1,1.58,1.58,0,0,1,.15.18l6,7.62c0-.18,0-.36,0-.54s0-.34,0-.49V27.86h1.87v11.4h-1.1a1,1,0,0,1-.42-.08,1.05,1.05,0,0,1-.32-.29l-6-7.59c0,.17,0,.34,0,.5s0,.32,0,.46v7h-1.87V27.86H171Z"/><path class="cls-1" d="M187.5,29.93a.66.66,0,0,1-.2.25.6.6,0,0,1-.27.07.64.64,0,0,1-.36-.13l-.46-.27a3.72,3.72,0,0,0-.63-.27,2.68,2.68,0,0,0-.85-.12,2.18,2.18,0,0,0-.76.11,1.56,1.56,0,0,0-.56.29,1.19,1.19,0,0,0-.33.45,1.4,1.4,0,0,0-.11.58,1,1,0,0,0,.22.67,1.91,1.91,0,0,0,.6.46,5.06,5.06,0,0,0,.84.34l1,.32a8.77,8.77,0,0,1,1,.39,3.11,3.11,0,0,1,.84.57,2.57,2.57,0,0,1,.6.84,2.89,2.89,0,0,1,.22,1.2,3.85,3.85,0,0,1-.26,1.45,3.45,3.45,0,0,1-.77,1.18,3.64,3.64,0,0,1-1.24.78,4.42,4.42,0,0,1-1.68.29,5.46,5.46,0,0,1-1.07-.1,6.71,6.71,0,0,1-1-.31,5.48,5.48,0,0,1-.9-.47,4.58,4.58,0,0,1-.75-.62l.61-1a.76.76,0,0,1,.21-.19.5.5,0,0,1,.27-.07.77.77,0,0,1,.43.16q.22.16.54.36a4.14,4.14,0,0,0,.73.36,3,3,0,0,0,1,.16,2.09,2.09,0,0,0,1.4-.43,1.53,1.53,0,0,0,.5-1.24,1.13,1.13,0,0,0-.22-.73,1.82,1.82,0,0,0-.6-.48,5.45,5.45,0,0,0-.84-.32l-1-.29c-.33-.11-.65-.24-1-.38a3.23,3.23,0,0,1-.84-.58,2.52,2.52,0,0,1-.59-.88A3.43,3.43,0,0,1,181,31a3,3,0,0,1,.25-1.21,3.39,3.39,0,0,1,.72-1.05,3.58,3.58,0,0,1,1.18-.73,4.32,4.32,0,0,1,1.58-.28,5.34,5.34,0,0,1,1.86.32,4.15,4.15,0,0,1,1.45.88Z"/><path class="cls-1" d="M197.72,27.86V29.6h-3.43v9.66h-2.12V29.6h-3.44V27.86Z"/><path class="cls-1" d="M201.3,39.26h-2.13V27.86h2.13Z"/><path class="cls-1" d="M211.73,27.86V29.6h-3.42v9.66h-2.12V29.6h-3.45V27.86Z"/><path class="cls-1" d="M217.51,37.54a2.73,2.73,0,0,0,1.1-.2,2.31,2.31,0,0,0,.82-.58,2.5,2.5,0,0,0,.51-.89,3.72,3.72,0,0,0,.18-1.19V27.86h2.12v6.82a5.19,5.19,0,0,1-.33,1.88,4.16,4.16,0,0,1-.94,1.49,4.25,4.25,0,0,1-1.49,1,5.72,5.72,0,0,1-3.94,0,4.25,4.25,0,0,1-1.49-1,4.14,4.14,0,0,1-.93-1.49,5.19,5.19,0,0,1-.33-1.88V27.86h2.12v6.82a3.65,3.65,0,0,0,.18,1.18,2.49,2.49,0,0,0,.51.9,2.27,2.27,0,0,0,.81.58A2.73,2.73,0,0,0,217.51,37.54Z"/><path class="cls-1" d="M232.27,27.86V29.6h-3.43v9.66h-2.12V29.6h-3.44V27.86Z"/><path class="cls-1" d="M246.46,33.56a6.15,6.15,0,0,1-.41,2.3,5.24,5.24,0,0,1-3,3,6.34,6.34,0,0,1-2.35.42h-4.35V27.86h4.35a6.34,6.34,0,0,1,2.35.42,5.17,5.17,0,0,1,3,3A6.08,6.08,0,0,1,246.46,33.56Zm-2.16,0a5.51,5.51,0,0,0-.25-1.69,3.71,3.71,0,0,0-.72-1.26,3.25,3.25,0,0,0-1.13-.79,4,4,0,0,0-1.5-.27h-2.22v8h2.22a3.82,3.82,0,0,0,1.5-.28,3.12,3.12,0,0,0,1.13-.79,3.53,3.53,0,0,0,.72-1.26A5.49,5.49,0,0,0,244.3,33.56Z"/><path class="cls-1" d="M255.16,27.86v1.69h-5v3.16h4v1.63h-4v3.22h5v1.7H248V27.86Z"/><path class="cls-1" d="M261.91,34.8v4.46h-2.12V27.86h3.48a7.3,7.3,0,0,1,2,.24,3.85,3.85,0,0,1,1.36.67,2.72,2.72,0,0,1,.78,1,3.35,3.35,0,0,1,.25,1.33,3.6,3.6,0,0,1-.17,1.09,3.14,3.14,0,0,1-1.28,1.66,3.91,3.91,0,0,1-1.07.5,2.08,2.08,0,0,1,.7.66l2.85,4.21h-1.91a.89.89,0,0,1-.47-.12.94.94,0,0,1-.32-.31l-2.4-3.65a.89.89,0,0,0-.29-.29,1,1,0,0,0-.48-.09Zm0-1.52h1.33a3.26,3.26,0,0,0,1-.15,2,2,0,0,0,.73-.41,1.58,1.58,0,0,0,.43-.63,2.05,2.05,0,0,0,.14-.79A1.63,1.63,0,0,0,265,30a2.72,2.72,0,0,0-1.74-.46h-1.36Z"/><path class="cls-1" d="M277.08,27.86v1.69H272v3.16h4v1.63h-4v3.22h5.06v1.7h-7.19V27.86Z"/><path class="cls-1" d="M286.59,36.57a.41.41,0,0,1,.3.13l.83.91a4.55,4.55,0,0,1-1.7,1.31,6.48,6.48,0,0,1-4.72,0,5.05,5.05,0,0,1-1.73-1.21,5.29,5.29,0,0,1-1.09-1.84,6.84,6.84,0,0,1-.39-2.34,6.23,6.23,0,0,1,.43-2.36,5.33,5.33,0,0,1,1.2-1.84,5.53,5.53,0,0,1,1.84-1.2,6.5,6.5,0,0,1,2.38-.43,5.6,5.6,0,0,1,2.22.41,5.43,5.43,0,0,1,1.63,1.07l-.71,1a1.29,1.29,0,0,1-.16.17.55.55,0,0,1-.28.07.61.61,0,0,1-.37-.15,4.16,4.16,0,0,0-.48-.3,3.63,3.63,0,0,0-.73-.31,3.69,3.69,0,0,0-1.14-.14,3.74,3.74,0,0,0-1.47.28,3.14,3.14,0,0,0-1.16.8,3.69,3.69,0,0,0-.76,1.26,4.93,4.93,0,0,0-.27,1.68,5,5,0,0,0,.27,1.71,3.72,3.72,0,0,0,.74,1.26,3.12,3.12,0,0,0,1.09.78,3.44,3.44,0,0,0,1.36.27,6.14,6.14,0,0,0,.78,0,3.1,3.1,0,0,0,.65-.15,2.89,2.89,0,0,0,.56-.27,3.07,3.07,0,0,0,.52-.39.88.88,0,0,1,.17-.12A.41.41,0,0,1,286.59,36.57Z"/><path class="cls-1" d="M298.78,39.26h-2.13v-5H291.3v5h-2.13V27.86h2.13v4.9h5.35v-4.9h2.13Z"/><path class="cls-1" d="M308.11,27.86v1.69h-5.05v3.16h4v1.63h-4v3.22h5.05v1.7h-7.19V27.86Z"/><path class="cls-1" d="M312,34.8v4.46h-2.12V27.86h3.48a7.23,7.23,0,0,1,2,.24,3.81,3.81,0,0,1,1.37.67,2.72,2.72,0,0,1,.78,1,3.54,3.54,0,0,1,.25,1.33,3.6,3.6,0,0,1-.17,1.09,3.14,3.14,0,0,1-1.28,1.66,3.91,3.91,0,0,1-1.07.5,2.08,2.08,0,0,1,.7.66l2.85,4.21h-1.91a.89.89,0,0,1-.47-.12.86.86,0,0,1-.32-.31l-2.4-3.65a.82.82,0,0,0-.3-.29,1,1,0,0,0-.47-.09Zm0-1.52h1.33a3.3,3.3,0,0,0,1-.15,2,2,0,0,0,.73-.41,1.69,1.69,0,0,0,.43-.63,2.05,2.05,0,0,0,.14-.79,1.63,1.63,0,0,0-.57-1.34,2.72,2.72,0,0,0-1.74-.46H312Z"/><path class="cls-1" d="M327.41,36.57a.38.38,0,0,1,.3.13l.84.91a4.51,4.51,0,0,1-1.71,1.31,5.76,5.76,0,0,1-2.43.46,5.69,5.69,0,0,1-2.28-.43,5,5,0,0,1-1.73-1.21,5.16,5.16,0,0,1-1.1-1.84,6.84,6.84,0,0,1-.38-2.34,6.43,6.43,0,0,1,.42-2.36,5.64,5.64,0,0,1,1.2-1.84,5.58,5.58,0,0,1,1.85-1.2,6.49,6.49,0,0,1,2.37-.43,5.6,5.6,0,0,1,2.22.41,5.19,5.19,0,0,1,1.63,1.07l-.71,1a.64.64,0,0,1-.16.17.54.54,0,0,1-.27.07.59.59,0,0,1-.37-.15l-.48-.3a3.75,3.75,0,0,0-.74-.31,3.62,3.62,0,0,0-1.13-.14,3.75,3.75,0,0,0-1.48.28,3.22,3.22,0,0,0-1.16.8,3.67,3.67,0,0,0-.75,1.26,4.93,4.93,0,0,0-.28,1.68,5,5,0,0,0,.28,1.71,3.7,3.7,0,0,0,.73,1.26,3.16,3.16,0,0,0,1.1.78,3.39,3.39,0,0,0,1.35.27,6.41,6.41,0,0,0,.79,0,3,3,0,0,0,.64-.15,2.63,2.63,0,0,0,.56-.27,3.59,3.59,0,0,0,.53-.39.83.83,0,0,1,.16-.12A.41.41,0,0,1,327.41,36.57Z"/><path class="cls-1" d="M339.61,39.26h-2.14v-5h-5.34v5H330V27.86h2.14v4.9h5.34v-4.9h2.14Z"/><path class="cls-1" d="M348.94,27.86v1.69h-5.06v3.16h4v1.63h-4v3.22h5.06v1.7h-7.19V27.86Z"/></g></g></svg>