<svg width="219" height="56" viewBox="0 0 219 56" fill="white" xmlns="http://www.w3.org/2000/svg">
    <g clip-path="url(#clip0_205_844)">
        <path d="M58.525 39.6847C58.3774 28.6 46.4004 16.7326 46.4004 16.7326C46.4004 16.7326 63.8566 20.8059 65.1953 6.00391C65.1953 6.00391 83.5191 34.4567 53.0689 51.6123C53.0636 51.6123 58.6121 46.2728 58.525 39.6847Z"
              fill="white"/>
        <path d="M54.9715 12.0956C56.6406 12.0956 57.9937 10.7477 57.9937 9.08491C57.9937 7.42215 56.6406 6.07422 54.9715 6.07422C53.3023 6.07422 51.9492 7.42215 51.9492 9.08491C51.9492 10.7477 53.3023 12.0956 54.9715 12.0956Z"
              fill="white"/>
        <path d="M23.9997 19.8177C23.9997 19.8177 31.0416 26.2748 37.3208 23.7015C41.9057 21.8225 42.9848 15.5656 42.0906 11.2762C38.5403 -5.73596 14.732 -0.61424 6.79417 9.6345C6.79417 9.6345 -8.49491 21.888 6.79417 43.0248C7.61994 43.9672 8.51102 44.8507 9.46087 45.6689C14.6965 50.2912 27.3882 58.8611 45.1555 53.4613C45.1555 53.4613 55.7761 42.6069 53.7316 34.2106C53.9894 35.2732 40.9848 36.0631 40.2541 36.0365C32.046 35.7478 18.0939 33.4863 17.3667 23.149C17.0218 18.2557 20.197 14.2674 24.3553 12.1015C28.2113 10.095 32.2363 10.3889 33.9892 14.8589C33.9945 14.8589 36.1243 24.7942 23.9997 19.8177Z"
              fill="white"/>
        <path d="M87.3953 26.6085H80.965V36.1966H88.2699V38.7362H78.0352V13.1914H87.8131V15.731H80.965V24.145H87.3953V26.6085Z"
              fill="white"/>
        <path d="M91.1208 25.2089C91.1208 23.0483 91.0071 21.9503 90.9697 20.4715H93.512L93.6631 22.6693H93.7395C94.1411 21.9029 94.749 21.2631 95.4951 20.8214C96.2411 20.3797 97.0959 20.1537 97.9636 20.1687C100.511 20.1687 102.408 22.0636 102.408 26.4982V38.8155H99.4925V26.9905C99.4925 24.8299 99.0729 22.6321 96.9431 22.6321C95.7253 22.6321 94.5449 23.6558 94.1644 25.6269C94.084 26.1662 94.046 26.711 94.0507 27.2562V38.8155H91.1208V25.2089Z"
              fill="white"/>
        <path d="M117.792 20.4708C117.754 21.7601 117.639 23.3894 117.639 26.1947V36.4664C117.639 41.28 117.031 43.0988 115.813 44.4253C114.711 45.6774 112.96 46.3964 110.904 46.3964C109.345 46.3964 107.824 46.0174 106.872 45.4879L107.557 43.2104C108.619 43.7417 109.792 44.0148 110.981 44.0073C113.303 44.0073 114.748 42.5675 114.748 38.3986V36.5408H114.668C114.021 37.9806 112.689 38.7776 111.13 38.7776C107.857 38.7776 105.728 35.101 105.728 29.7189C105.728 22.9732 108.808 20.168 111.511 20.168C113.489 20.168 114.401 21.4573 114.935 22.5553H115.024L115.175 20.4708H117.792ZM114.748 26.8003C114.759 26.3533 114.707 25.9069 114.595 25.4739C114.254 24.2235 113.607 22.6686 111.929 22.6686C109.795 22.6686 108.657 25.5022 108.657 29.5755C108.657 34.2757 110.14 36.3974 111.929 36.3974C112.805 36.3974 113.946 35.9812 114.554 33.7834C114.691 33.238 114.755 32.6771 114.745 32.1151L114.748 26.8003Z"
              fill="white"/>
        <path d="M128.975 38.8148L128.785 36.8826H128.671C127.873 38.2835 126.579 39.1176 125.02 39.1176C122.547 39.1176 120.645 37.0331 120.645 33.8879C120.645 29.301 124.333 27.2555 128.481 27.2183V26.6498C128.481 24.1846 127.873 22.4791 125.551 22.4791C124.465 22.4913 123.407 22.8207 122.508 23.4266L121.861 21.3811C122.621 20.8126 124.333 20.168 126.161 20.168C129.85 20.168 131.448 22.5942 131.448 26.7206V34.6423C131.448 36.0449 131.448 37.6371 131.638 38.8112L128.975 38.8148ZM128.558 29.3399C127.036 29.3399 123.496 29.6056 123.496 33.5903C123.496 35.9776 124.714 36.849 125.741 36.849C127.036 36.849 128.138 35.9015 128.481 34.0827C128.543 33.7451 128.569 33.402 128.558 33.059V29.3399Z"
              fill="white"/>
        <path d="M146.819 20.4708C146.78 21.7601 146.666 23.3894 146.666 26.1947V36.4664C146.666 41.28 146.058 43.0988 144.841 44.4253C143.736 45.6774 141.987 46.3964 139.932 46.3964C138.373 46.3964 136.851 46.0174 135.9 45.4879L136.584 43.2121C137.647 43.7435 138.82 44.0166 140.008 44.0091C142.33 44.0091 143.776 42.5693 143.776 38.4004V36.5408H143.699C143.052 37.9806 141.72 38.7776 140.161 38.7776C136.89 38.7776 134.757 35.101 134.757 29.7189C134.757 22.9732 137.838 20.168 140.54 20.168C142.517 20.168 143.431 21.4573 143.964 22.5553H144.04L144.192 20.4708H146.819ZM143.776 26.8003C143.785 26.3533 143.734 25.907 143.623 25.4739C143.281 24.2235 142.634 22.6686 140.956 22.6686C138.823 22.6686 137.685 25.5022 137.685 29.5755C137.685 34.2757 139.168 36.3974 140.956 36.3974C141.831 36.3974 142.972 35.9812 143.582 33.7834C143.718 33.2378 143.781 32.677 143.772 32.1151L143.776 26.8003Z"
              fill="white"/>
        <path d="M152.791 29.9084C152.83 35.5172 155.036 36.7303 157.166 36.7303C158.226 36.7545 159.274 36.5062 160.21 36.0095L160.667 38.1701C159.639 38.7386 158.08 39.0415 156.634 39.0415C152.22 39.0415 149.938 35.441 149.938 29.8323C149.938 23.8817 152.45 20.168 156.14 20.168C159.906 20.168 161.39 24.1102 161.39 28.2791C161.39 28.961 161.39 29.4533 161.351 29.9084H152.791ZM158.579 27.7478C158.656 24.0712 157.248 22.4348 155.84 22.4348C153.938 22.4348 152.949 25.2401 152.835 27.7478H158.579Z"
              fill="white"/>
        <path d="M168.592 13.2695V38.8144H163.614V13.2695H168.592Z" fill="white"/>
        <path d="M185.332 38.4452C184.609 38.7871 183.199 39.0509 181.451 39.0509C174.907 39.0509 171.787 33.6706 171.787 26.4308C171.787 16.8037 177.153 13.0527 182.136 13.0527C183.885 13.0527 185.103 13.3928 185.597 13.7346L184.761 17.9035C184.038 17.5566 183.242 17.3878 182.44 17.4112C179.625 17.4112 177.076 19.8356 177.076 26.1652C177.076 32.268 179.396 34.6553 182.44 34.6553C183.252 34.6401 184.059 34.5126 184.836 34.2763L185.332 38.4452Z"
              fill="white"/>
        <path d="M194.767 38.8144V32.94H186.281V29.5291L194.386 14.1816H199.186V28.9624H201.659V32.9418H199.186V38.8162L194.767 38.8144ZM194.767 28.9606V23.9221C194.767 22.5956 194.918 21.154 195.032 19.8665H194.88C194.31 21.2302 193.814 22.33 193.168 23.6937L190.502 28.8862V28.9624L194.767 28.9606Z"
              fill="white"/>
        <path d="M209.109 13.2695V29.8708C209.109 33.6218 210.25 34.7588 211.544 34.7588C212.99 34.7588 214.017 33.7351 214.017 29.8708V13.2695H218.995V28.9977C218.995 35.5504 216.522 39.1172 211.576 39.1172C206.213 39.1172 204.12 35.4406 204.12 29.0367V13.2748L209.109 13.2695Z"
              fill="white"/>
    </g>
    <defs>
        <clipPath id="clip0_205_844">
            <rect width="219" height="55" fill="white" transform="translate(0 0.191406)"/>
        </clipPath>
    </defs>
</svg>
