<?xml version="1.0" encoding="UTF-8"?>
<svg id="b" xmlns="http://www.w3.org/2000/svg" viewBox="0 0 907.81 310.56" width="150" height="60">
    <g id="c">
        <g>
            <g>
                <path d="m329.2,222.96c-.83-62.55-68.24-129.55-68.24-129.55,0,0,98.2,23.02,105.72-60.58,0,0,103.08,160.66-68.2,257.53,0,0,31.21-30.15,30.72-67.39Z"
                      fill="#002e6d"/>
                <circle cx="309.21" cy="50.22" r="17" fill="#002e6d"/>
                <path d="m134.95,110.82s39.6,36.47,74.93,21.93c25.79-10.61,31.86-45.94,26.83-70.16C216.79-33.47,82.87-4.55,38.22,53.32c0,0-85.99,69.18,0,188.54,0,0,5.16,6.22,14.97,14.92,29.45,26.1,100.84,74.5,200.77,44.04,0,0,59.74-61.28,48.24-108.7,1.46,6-71.7,10.45-75.81,10.31-46.14-1.66-124.62-14.49-128.71-72.8-1.94-27.61,15.92-50.15,39.35-62.39,21.69-11.33,44.33-9.66,54.18,15.57,0,0,11.98,56.09-56.26,27.99Z"
                      fill="#65cbc9"/>
            </g>
            <g>
                <path d="m491.59,149.61h-36.17v54.14h41.09v14.34h-57.57V73.85h55v14.34h-38.52v47.51h36.17v13.91Z"
                      fill="#65cbc9"/>
                <path d="m512.55,141.26c0-12.2-.64-18.4-.86-26.75h14.34l.86,12.41h.43c4.49-8.35,12.84-14.12,23.75-14.12,14.34,0,25.04,10.7,25.04,35.74v69.55h-16.48v-66.77c0-12.2-2.35-24.61-14.34-24.61-6.85,0-13.48,5.78-15.62,16.91-.43,2.57-.64,5.78-.64,9.2v65.27h-16.48v-76.83Z"
                      fill="#65cbc9"/>
                <path d="m662.57,114.51c-.21,7.28-.86,16.48-.86,32.31v58c0,27.18-3.42,37.45-10.27,44.94-6.21,7.06-16.05,11.13-27.61,11.13-8.77,0-17.33-2.14-22.68-5.14l3.85-12.84c4.07,2.14,10.92,4.49,19.26,4.49,13.05,0,21.19-8.13,21.19-31.67v-10.49h-.43c-3.64,8.13-11.13,12.63-19.9,12.63-18.4,0-30.39-20.76-30.39-51.15,0-38.09,17.33-53.93,32.53-53.93,11.13,0,16.26,7.28,19.26,13.48h.43l.86-11.77h14.77Zm-17.12,35.74c0-2.57-.21-5.35-.86-7.49-1.93-7.06-5.56-15.84-14.98-15.84-11.98,0-18.41,16.05-18.41,38.95,0,26.54,8.35,38.52,18.41,38.52,4.92,0,11.34-2.35,14.77-14.77.86-3.21,1.07-6.42,1.07-9.42v-29.96Z"
                      fill="#65cbc9"/>
                <path d="m725.48,218.09l-1.07-10.91h-.64c-4.49,7.92-11.77,12.63-20.54,12.63-13.91,0-24.61-11.77-24.61-29.53,0-25.89,20.76-37.45,44.08-37.66v-3.21c0-13.91-3.42-23.54-16.48-23.54-6.42,0-12.2,2.14-17.12,5.35l-3.64-11.56c4.28-3.21,13.91-6.85,24.18-6.85,20.76,0,29.75,13.7,29.75,37.02v44.73c0,7.92,0,16.91,1.07,23.54h-14.98Zm-2.35-53.5c-8.56,0-28.46,1.5-28.46,23.97,0,13.48,6.85,18.4,12.63,18.4,7.28,0,13.48-5.35,15.41-15.62.43-1.93.43-4.07.43-5.78v-20.97Z"
                      fill="#65cbc9"/>
                <path d="m825.85,114.51c-.21,7.28-.86,16.48-.86,32.31v58c0,27.18-3.42,37.45-10.27,44.94-6.21,7.06-16.05,11.13-27.61,11.13-8.77,0-17.33-2.14-22.68-5.14l3.85-12.84c4.07,2.14,10.92,4.49,19.26,4.49,13.05,0,21.19-8.13,21.19-31.67v-10.49h-.43c-3.64,8.13-11.13,12.63-19.9,12.63-18.4,0-30.39-20.76-30.39-51.15,0-38.09,17.33-53.93,32.53-53.93,11.13,0,16.26,7.28,19.26,13.48h.43l.86-11.77h14.77Zm-17.12,35.74c0-2.57-.21-5.35-.86-7.49-1.93-7.06-5.56-15.84-14.98-15.84-11.98,0-18.41,16.05-18.41,38.95,0,26.54,8.35,38.52,18.41,38.52,4.92,0,11.34-2.35,14.77-14.77.86-3.21,1.07-6.42,1.07-9.42v-29.96Z"
                      fill="#65cbc9"/>
                <path d="m859.44,167.8c.21,31.67,12.63,38.52,24.61,38.52,7.06,0,13.05-1.71,17.12-4.07l2.57,12.2c-5.78,3.21-14.55,4.92-22.68,4.92-24.82,0-37.66-20.33-37.66-52,0-33.6,14.12-54.57,34.88-54.57s29.53,22.26,29.53,45.8c0,3.85,0,6.63-.21,9.2h-48.15Zm32.53-12.2c.43-20.76-7.49-29.96-15.41-29.96-10.7,0-16.26,15.84-16.91,29.96h32.32Z"
                      fill="#65cbc9"/>
            </g>
        </g>
    </g>
</svg>