<svg xmlns="http://www.w3.org/2000/svg" viewBox="0 0 397.44 310.56" width="150" height="60">
    <path d="M329.2,223C328.37,160.41,261,93.4,261,93.4s98.19,23,105.72-60.58c0,0,103.07,160.66-68.21,257.53C298.48,290.35,329.69,260.2,329.2,223Z"
          fill="#002e6d"/>
    <circle cx="309.21" cy="50.22" r="17" fill="#002e6d"/>
    <path d="M135,110.82s39.61,36.46,74.93,21.93c25.79-10.61,31.86-45.94,26.83-70.16C216.79-33.47,82.87-4.55,38.22,53.32c0,0-86,69.19,0,188.54a151.1,151.1,0,0,0,15,14.93c29.45,26.1,100.84,74.49,200.78,44,0,0,59.74-61.29,48.24-108.7,1.45,6-71.7,10.46-75.81,10.31C180.26,200.77,101.78,188,97.69,129.63,95.75,102,113.61,79.48,137,67.25c21.69-11.33,44.33-9.67,54.19,15.57C191.22,82.82,203.2,138.92,135,110.82Z"
          fill="#65cbc9"/>
</svg>