<svg xmlns="http://www.w3.org/2000/svg" width="256.4" height="106.6" viewBox="0 0 256.4 106.6">
    <circle cx="48.5" cy="72.2" r="2.4" fill="#ea0029"/>
    <circle cx="34.9" cy="63.9" r="2.4" fill="#ff4713"/>
    <circle cx="31.2" cy="48.4" r="2.4" fill="#ff6b00"/>
    <circle cx="39.5" cy="34.8" r="2.4" fill="#ff9e18"/>
    <circle cx="54.9" cy="31" r="2.4" fill="#ffb71b"/>
    <circle cx="34.4" cy="75.2" r="3.6" fill="#ea0029"/>
    <circle cx="23.5" cy="59.5" r="3.6" fill="#ff4713"/>
    <circle cx="26.2" cy="37.2" r="3.6" fill="#ff6b00"/>
    <circle cx="43.8" cy="23.4" r="3.6" fill="#ff9e18"/>
    <circle cx="66.1" cy="26.1" r="3.6" fill="#ffb71b"/>
    <circle cx="14.7" cy="77.3" r="7.3" fill="#ea0029"/>
    <circle cx="7.3" cy="43.6" r="7.3" fill="#ff4713"/>
    <circle cx="26.1" cy="14.5" r="7.3" fill="#ff6b00"/>
    <circle cx="59.8" cy="7.3" r="7.3" fill="#ff9e18"/>
    <circle cx="88.9" cy="26" r="7.3" fill="#ffb71b"/>
    <circle cx="48.5" cy="72.2" r="2.4" fill="#fcb525"/>
    <circle cx="34.9" cy="63.9" r="2.4" fill="#f99c24"/>
    <circle cx="31.2" cy="48.4" r="2.4" fill="#f36d21"/>
    <circle cx="39.5" cy="34.8" r="2.4" fill="#f04b24"/>
    <circle cx="54.9" cy="31" r="2.4" fill="#e91d2d"/>
    <circle cx="34.4" cy="75.2" r="3.6" fill="#fcb525"/>
    <circle cx="23.5" cy="59.5" r="3.6" fill="#f99c24"/>
    <circle cx="26.2" cy="37.2" r="3.6" fill="#f36d21"/>
    <circle cx="43.8" cy="23.4" r="3.6" fill="#f04b24"/>
    <circle cx="66.1" cy="26.1" r="3.6" fill="#e91d2d"/>
    <circle cx="14.7" cy="77.3" r="7.3" fill="#fcb525"/>
    <circle cx="7.3" cy="43.6" r="7.3" fill="#f99c24"/>
    <circle cx="26.1" cy="14.5" r="7.3" fill="#f36d21"/>
    <circle cx="59.8" cy="7.3" r="7.3" fill="#f04b24"/>
    <circle cx="88.9" cy="26" r="7.3" fill="#e91d2d"/>
    <path d="M60.9 98.4l7.4-8.8c4 3.5 9.2 5.9 13.9 5.9s8-2.1 8-5.5-3.2-4.7-8.2-6.7l-7.4-3.2c-5.9-2.4-11.4-7.2-11.4-15.5s8.4-16.9 20.2-16.9a25.9 25.9 0 0 1 18.2 7.5l-6.4 8.1c-3.8-2.9-7.3-4.5-11.8-4.5s-7.3 1.8-7.3 5.1 3.8 4.7 8.7 6.7l7.2 2.9c7 2.9 11.3 7.5 11.3 15.5s-7.9 17.6-21.4 17.6a31.2 31.2 0 0 1-21-8.2zm48.6-49.6h12.8v46h22.4v10.7h-35.2zm39.5.5c0-3.9 3.1-6.7 7.4-6.7s7.4 2.8 7.4 6.7-3.1 6.7-7.4 6.7-7.4-2.8-7.4-6.7zm1 13h12.8v43.2H150zm19.9-13.5H186c17.3 0 28.5 8.6 28.5 28.1s-11.2 28.6-27.8 28.6h-16.8zm15.3 46.4c9.6 0 16.1-4.7 16.1-18.3s-6.5-17.8-16.1-17.8h-2.4v36.1zM220 48.8h35.5v10.7h-22.7v11.4h19.4v10.8h-19.4v13.1h23.6v10.7H220z"/>
</svg>