<?xml version="1.0" encoding="utf-8"?>
<!-- Generator: Adobe Illustrator 26.0.3, SVG Export Plug-In . SVG Version: 6.00 Build 0)  -->
<svg version="1.0" id="Layer_1" xmlns="http://www.w3.org/2000/svg" xmlns:xlink="http://www.w3.org/1999/xlink" x="0px" y="0px"
	 viewBox="0 0 306 224" style="enable-background:new 0 0 306 224;" xml:space="preserve">
<path d="M87.3,181.8c-0.2-1.5-0.2-3-0.2-4.4c-1.5,2.8-4.4,4.6-7.7,4.6c-2.5,0.2-4.8-1.3-5.7-3.6c-0.4-1.2-0.6-2.9-0.6-6.7v-7.1
	c0-2.2-0.2-3.1-0.6-3.5c-0.3-0.3-0.6-0.4-1.5-0.4h-0.8v-1l6.7-0.4c-0.2,4-0.3,5-0.3,8v3.8c0,4.3,0.1,5.5,0.6,7
	c0.4,1.5,1.9,2.5,3.5,2.4c2.4,0,4.5-1.6,5.6-4.2c0.6-1.5,0.8-2.4,0.8-5.1v-6.6c0-2.3-0.1-3.1-0.6-3.5c-0.4-0.3-0.9-0.5-1.5-0.4h-0.8
	v-1l6.7-0.4c-0.1,3.2-0.2,6.1-0.2,8v8.1c0,4.3,0.4,5.1,2.6,5.1h0.3v0.9L87.3,181.8z"/>
<path d="M104.4,154.6c2.6-3.2,6.3-4.9,11-4.9s8.3,1.6,11,4.9c2.5,3.2,3.7,7.2,3.6,11.3c0.2,4-1.1,8-3.6,11.2c-2.7,3.3-6.3,5-11,5
	c-4.3,0.2-8.3-1.7-11-5C99.6,170.4,99.6,161.4,104.4,154.6L104.4,154.6z M107.5,176.2c2.4,4.4,7.9,5.9,12.2,3.5
	c1.5-0.8,2.7-2,3.5-3.5c3.1-6.5,3.1-14.1,0-20.7c-2.4-4.4-7.9-5.9-12.2-3.5c-1.5,0.8-2.7,2-3.5,3.5
	C104.4,162.1,104.4,169.7,107.5,176.2z"/>
<path d="M139.7,175.4c0,2.5,0.1,3.7,0.6,4.3c0.5,0.6,1.3,1,2.1,0.9c1,0,1.9-0.3,2.7-0.8l0.4,1.1c-1.3,0.7-2.8,1.1-4.4,1.1
	c-2.1,0-3.7-0.7-4.4-2.1c-0.5-0.9-0.6-1.8-0.6-5V161h-2.7v-1c2.5-0.2,3.8-1.9,4.5-5.9l2-0.6c-0.1,1.9-0.1,3.5-0.1,6.3h5.2v1.2h-5.2
	V175.4z"/>
<path d="M153.9,175.4c0,2.5,0.1,3.7,0.6,4.3c0.5,0.6,1.3,1,2.1,0.9c1,0,1.9-0.3,2.7-0.8l0.4,1.1c-1.3,0.7-2.8,1.1-4.4,1.1
	c-2.1,0-3.7-0.7-4.4-2.1c-0.5-0.9-0.6-1.8-0.6-5V161h-2.7v-1c2.5-0.2,3.8-1.9,4.5-5.9l2-0.6c-0.1,1.9-0.1,3.5-0.1,6.3h5.2v1.2h-5.2
	L153.9,175.4z"/>
<path d="M182.6,181.4c-1.5,0.2-3,0.4-4.4,0.4c-1.3,0-1.6-0.7-1.8-3.6c-0.6,0.7-1.3,1.3-2.1,1.9c-1.6,1.3-3.6,1.9-5.6,1.8
	c-1.6,0.1-3.1-0.4-4.4-1.3c-1.2-1.2-1.9-2.8-1.9-4.6c0-3.4,2.2-5.6,6.3-6.6c2.5-0.5,5.1-0.9,7.7-1v-2.7c0.1-1.3-0.1-2.7-0.6-3.9
	c-0.6-1.1-1.8-1.7-3.5-1.7c-2.8,0-4.3,1.3-4.5,4c0,0.9-0.1,1.2-0.5,1.5c-0.5,0.3-1,0.4-1.5,0.3c-1.5,0-2.1-0.4-2.1-1.3
	c0.2-1.8,1.3-3.4,2.9-4.1c1.9-1,4.1-1.5,6.3-1.4c2.8,0,4.7,0.6,5.8,1.9c0.9,1.1,1.2,2.5,1.2,4.9c0,0.1,0,0.1-0.1,4.4v4.1v2
	c-0.1,1.3,0.1,2.5,0.5,3.7c0.3,0.3,0.8,0.5,2.4,0.5L182.6,181.4z M176.4,169.5c-3.8,0.3-5.5,0.7-7.2,1.6c-1.9,0.9-3,2.8-2.9,4.9
	c0,2.7,1.5,4.6,3.6,4.6c2.2,0,4.3-1.2,5.5-3.1c0.7-1.2,1-3,1-5.9V169.5z"/>
<path d="M193.4,181.7h-2.2l-5.3-17.9c-0.7-2.4-1.2-3-3.4-3.1v-1h9.5v1c-2.1,0.1-2.9,0.5-2.9,1.6c0.1,0.6,0.2,1.3,0.4,1.9l3.9,13.5
	l5.7-17.4h1.8l5.5,17.4l3.7-12.7c0.3-0.8,0.5-1.6,0.5-2.5c0-0.7-0.5-1.4-1.2-1.6c-0.6-0.2-1.3-0.3-1.9-0.3v-1h8.4v1
	c-2.4,0.1-3.2,0.9-4.2,4.3l-5.2,16.7h-2.2l-5.4-16.5L193.4,181.7z"/>
<path d="M236.4,181.4c-1.5,0.2-2.9,0.4-4.4,0.4c-1.3,0-1.6-0.7-1.8-3.6c-0.6,0.7-1.3,1.3-2.1,1.9c-1.6,1.3-3.6,1.9-5.6,1.8
	c-1.6,0.1-3.1-0.4-4.4-1.3c-1.2-1.2-1.9-2.8-1.9-4.6c0-3.4,2.1-5.6,6.3-6.6c2.5-0.5,5.1-0.9,7.7-1v-2.7c0.1-1.3-0.1-2.7-0.6-3.9
	c-0.6-1.1-1.8-1.7-3.5-1.7c-2.9,0-4.3,1.3-4.5,4c0,0.9-0.1,1.2-0.5,1.5c-0.5,0.3-1,0.4-1.5,0.3c-1.5,0-2.1-0.4-2.1-1.3
	c0.2-1.8,1.3-3.4,2.9-4.1c1.9-1,4.1-1.5,6.3-1.4c2.8,0,4.7,0.6,5.8,1.9c0.9,1.1,1.2,2.5,1.2,4.9c0,0.1,0,0.1-0.1,4.4v4.1v2
	c-0.1,1.3,0.1,2.5,0.5,3.7c0.3,0.3,0.8,0.5,2.4,0.5L236.4,181.4z M230.1,169.5c-3.8,0.3-5.5,0.7-7.2,1.6c-1.9,0.9-3,2.8-2.9,4.9
	c0,2.7,1.5,4.6,3.6,4.6c2.3,0,4.3-1.2,5.5-3.1c0.7-1.2,1-3,1-5.9V169.5z"/>
<path d="M133.4,51.7h-9.6v5h-9.4v73.9h77.8V56.7h-9.4v-5h-9.6c-4.1-6.7-11.1-10.3-19.9-10.3S137.5,45,133.4,51.7z M134.6,55.8h1.2
	l0.6-1.1c4.1-7.6,11.5-9.2,16.9-9.2s12.8,1.6,16.9,9.2l0.6,1.1h7.9v5h9.4v65.7h-69.4V60.9h9.4v-5L134.6,55.8z"/>
<polygon points="122.9,115.4 183.7,115.4 183.7,117.7 122.9,117.7 122.9,115.4 "/>
<polygon points="121.1,119.4 185.5,119.4 185.5,121.7 121.1,121.7 121.1,119.4 "/>
<path d="M152.6,65.5l-30.4,10.9l1.4,3.9l29.7-10.7L183,80.3l1.4-3.9l-31.1-11.2L152.6,65.5z"/>
<path d="M179.5,109.1l-0.6-23.2c0.2,0.1,0.4,0.1,0.6,0.2c0.7,0,1.3-0.6,1.3-1.3c0-0.3-0.1-0.7-0.4-0.9h1v-2.3h-56.4v2.3h1
	c-0.2,0.2-0.4,0.6-0.4,0.9c0,0.7,0.6,1.3,1.3,1.3c0,0,0,0,0,0c0.2,0,0.4,0,0.6-0.1L127,109h-2.1v3.8h56.7v-3.8H179.5z M138.9,109.1
	h-6.5l-0.6-23.2c0.2,0.1,0.4,0.1,0.6,0.1c0.7,0,1.3-0.6,1.3-1.3c0,0,0,0,0,0c0-0.3-0.1-0.7-0.4-0.9h4.6c-0.2,0.2-0.4,0.6-0.4,0.9
	c0,0.7,0.6,1.3,1.3,1.3c0.2,0,0.4,0,0.6-0.1L138.9,109.1z M150.6,109.1h-6.5l-0.6-23.2c0.6,0.3,1.4,0,1.7-0.6c0.2-0.5,0.1-1-0.2-1.4
	h4.6c-0.2,0.2-0.4,0.6-0.4,0.9c0,0.7,0.6,1.3,1.3,1.3c0.2,0,0.4,0,0.6-0.1L150.6,109.1z M162.4,109.1h-6.5l-0.6-23.2
	c0.2,0.1,0.4,0.1,0.6,0.1c0.7,0,1.3-0.6,1.3-1.3c0,0,0,0,0,0c0-0.3-0.1-0.7-0.4-0.9h4.7c-0.2,0.2-0.4,0.6-0.4,0.9
	c0,0.7,0.6,1.3,1.3,1.3c0.2,0,0.4,0,0.6-0.1L162.4,109.1z M174.2,109.1h-6.5l-0.6-23.2c0.2,0.1,0.4,0.1,0.6,0.1
	c0.7,0,1.3-0.6,1.3-1.3c0,0,0,0,0,0c0-0.3-0.1-0.7-0.4-0.9h4.7c-0.2,0.2-0.4,0.6-0.4,0.9c0,0.7,0.6,1.3,1.3,1.3c0.2,0,0.4,0,0.6-0.1
	L174.2,109.1z"/>
</svg>
