<?xml version="1.0" standalone="no"?>
<!DOCTYPE svg PUBLIC "-//W3C//DTD SVG 20010904//EN"
 "http://www.w3.org/TR/2001/REC-SVG-20010904/DTD/svg10.dtd">
<svg version="1.0" xmlns="http://www.w3.org/2000/svg"
 width="794.000000pt" height="794.000000pt" viewBox="0 0 794.000000 794.000000"
 preserveAspectRatio="xMidYMid meet">
<metadata>
Created by potrace 1.14, written by Peter Selinger 2001-2017
</metadata>
<g transform="translate(0.000000,794.000000) scale(0.100000,-0.100000)"
fill="#000000" stroke="none">
<path d="M2888 7065 c-2 -2 -35 -7 -73 -10 -89 -9 -113 -12 -150 -18 -16 -3
-46 -8 -65 -11 -48 -8 -111 -21 -150 -31 -3 -1 -23 -5 -45 -10 -56 -13 -55
-12 -57 -15 -2 -1 -10 -3 -18 -5 -54 -11 -263 -76 -305 -95 -11 -5 -66 -27
-123 -50 -116 -45 -311 -140 -405 -196 -89 -53 -279 -180 -302 -202 -11 -10
-28 -23 -37 -28 -50 -29 -272 -240 -353 -338 -28 -33 -68 -76 -89 -95 -45 -41
-112 -111 -135 -142 -9 -11 -27 -33 -41 -47 -14 -15 -51 -63 -82 -107 -32 -44
-61 -85 -65 -91 -24 -31 -92 -149 -138 -239 -58 -112 -143 -320 -137 -332 1
-2 -5 -18 -14 -38 -8 -19 -15 -38 -15 -42 -1 -5 -3 -12 -4 -18 -6 -18 -35
-149 -40 -175 -3 -14 -8 -38 -11 -55 -4 -16 -8 -41 -9 -55 -2 -14 -7 -54 -11
-90 -11 -80 -11 -443 0 -525 9 -73 16 -120 23 -160 3 -16 7 -39 8 -50 10 -62
50 -224 79 -320 56 -182 107 -312 197 -501 16 -34 29 -66 29 -72 0 -6 4 -12 8
-14 4 -1 18 -23 30 -48 66 -137 315 -540 334 -540 4 0 8 -6 8 -13 0 -31 224
-261 390 -400 52 -44 97 -84 98 -88 2 -5 8 -9 13 -9 10 0 25 -11 57 -41 58
-54 363 -258 507 -339 114 -64 162 -90 255 -135 96 -48 149 -72 280 -126 138
-56 427 -151 496 -162 10 -1 24 -5 29 -8 9 -6 39 -13 105 -25 19 -4 83 -17 90
-19 3 -1 39 -7 80 -14 41 -7 83 -15 94 -17 10 -2 44 -6 75 -9 31 -4 67 -8 81
-11 151 -26 614 -25 870 1 19 2 64 6 99 10 36 3 68 8 72 10 4 3 26 7 50 10 34
5 196 36 309 60 8 2 50 13 93 24 42 12 85 22 95 24 9 1 22 5 27 9 6 3 24 9 40
12 17 4 42 17 55 30 33 31 141 154 159 180 8 12 23 27 33 34 10 7 18 18 18 24
0 6 8 18 18 27 26 22 202 260 202 271 0 6 4 10 9 10 5 0 13 9 16 20 3 11 14
27 23 37 21 21 61 84 156 249 92 159 139 252 201 399 21 50 82 232 89 265 3
14 10 43 15 65 25 104 30 146 35 293 2 67 0 140 -5 161 -5 21 -10 52 -11 70
-3 36 -7 37 -51 14 -18 -9 -41 -18 -52 -20 -11 -2 -36 -8 -55 -13 -55 -14
-211 -39 -350 -56 -19 -2 -57 -7 -85 -10 -27 -4 -63 -8 -80 -9 -16 -2 -61 -6
-100 -9 -38 -4 -90 -8 -115 -11 -25 -2 -76 -6 -115 -9 -444 -39 -622 -39 -980
0 -27 3 -63 7 -80 8 -27 3 -63 8 -150 23 -16 2 -43 6 -60 9 -16 2 -65 10 -110
18 -44 9 -91 17 -105 20 -278 50 -761 223 -929 334 -46 30 -66 42 -81 49 -8 4
-17 9 -20 12 -3 3 -43 35 -90 71 -122 93 -218 193 -298 312 -61 89 -130 242
-148 323 -1 6 -6 28 -12 50 -6 22 -14 54 -18 70 -11 51 -13 329 -3 376 6 24
12 57 14 73 5 34 65 216 77 232 5 6 22 39 39 73 73 146 242 342 394 456 46 34
165 115 170 115 2 0 29 15 62 33 63 36 225 104 264 111 13 3 24 5 24 7 0 1 9
3 20 4 11 2 42 8 70 13 27 6 97 9 155 7 169 -5 300 -64 414 -186 69 -75 151
-220 162 -289 9 -59 10 -212 0 -273 -38 -260 -214 -410 -481 -410 -52 0 -185
12 -195 18 -3 2 -21 6 -41 9 -66 10 -255 66 -324 95 -11 5 -33 14 -50 20 l-30
11 35 -31 c228 -200 626 -406 857 -445 15 -2 42 -7 58 -11 42 -9 88 -12 175
-14 100 -1 170 7 260 32 78 22 240 96 240 110 0 4 9 10 20 14 25 8 157 140
176 177 8 15 19 28 24 28 6 0 10 6 10 13 0 7 9 23 20 35 12 12 18 22 16 22 -3
0 10 29 29 65 20 36 33 65 29 65 -4 0 -2 6 3 13 12 14 50 130 58 177 3 18 8
36 10 40 2 4 7 25 10 46 2 21 7 50 10 64 21 102 21 296 1 476 -8 72 -55 257
-86 344 -36 99 -109 253 -121 258 -5 2 -9 8 -9 14 0 6 -23 45 -52 87 -96 140
-203 246 -373 369 -102 72 -383 191 -515 216 -14 3 -36 7 -50 10 -50 11 -142
27 -188 33 -53 6 -459 13 -464 8z"/>
<path d="M6075 6388 c-97 -32 -159 -86 -200 -175 -44 -94 -48 -169 -15 -268
15 -46 20 -54 86 -120 63 -65 141 -98 229 -97 309 3 456 370 234 583 -89 86
-218 115 -334 77z"/>
<path d="M7322 6390 c1 -31 -10 -111 -23 -165 -6 -22 -12 -53 -14 -70 -2 -16
-13 -57 -25 -90 -11 -33 -21 -62 -22 -65 -2 -13 -19 -54 -71 -172 -6 -16 -15
-28 -19 -28 -5 0 -8 -5 -8 -11 0 -12 -63 -110 -100 -154 -46 -55 -168 -175
-179 -175 -5 0 -14 -6 -18 -13 -8 -12 -77 -60 -122 -84 -13 -7 -40 -22 -60
-32 -36 -20 -145 -68 -171 -76 -3 -1 -30 -9 -60 -19 -73 -23 -193 -52 -253
-61 -27 -3 -59 -8 -70 -11 -142 -27 -565 -21 -747 12 -14 2 -38 6 -55 9 -16 3
-43 8 -60 11 -30 6 -29 5 20 -46 28 -29 57 -61 65 -70 8 -9 33 -37 55 -62 22
-24 60 -68 85 -97 25 -30 53 -63 64 -75 10 -11 30 -37 45 -56 14 -19 38 -48
53 -65 16 -16 28 -33 28 -37 0 -5 8 -16 18 -26 23 -24 112 -141 112 -147 0 -3
7 -13 14 -22 26 -31 121 -167 146 -208 13 -22 26 -42 29 -45 4 -3 11 -14 18
-25 7 -11 43 -72 82 -135 38 -63 81 -137 95 -164 14 -27 31 -55 37 -62 6 -8 9
-14 5 -14 -3 0 7 -21 22 -47 30 -51 116 -235 138 -293 7 -19 22 -60 34 -90 27
-70 90 -267 96 -300 3 -14 7 -33 10 -42 15 -49 43 -213 51 -293 13 -133 7
-324 -12 -420 -4 -16 -8 -41 -10 -55 -2 -14 -4 -26 -6 -27 -2 -4 -5 -13 -14
-58 -4 -22 -12 -48 -17 -58 -5 -10 -11 -27 -13 -38 -12 -61 -131 -316 -191
-409 -15 -25 -27 -48 -26 -52 1 -5 -2 -8 -6 -8 -4 0 -16 -15 -27 -32 -22 -39
-116 -167 -153 -211 -15 -17 -45 -50 -66 -74 -21 -24 -37 -45 -35 -48 3 -2 29
12 59 30 30 19 61 35 68 35 6 0 12 3 12 8 0 4 23 21 51 37 73 43 150 92 184
117 6 5 35 26 65 47 30 22 60 45 67 51 7 5 15 10 17 10 6 0 24 14 79 62 18 15
40 30 50 34 9 3 17 9 17 14 0 5 9 12 20 15 11 3 20 13 20 21 0 8 5 14 10 14
10 0 19 8 124 100 130 115 304 298 413 435 40 50 78 97 85 105 7 8 36 49 63
90 28 41 52 77 55 80 32 32 237 418 255 480 1 3 9 23 19 45 10 22 19 47 21 56
2 8 10 33 19 54 14 33 59 175 71 225 2 8 13 56 26 105 12 50 23 104 25 120 1
17 5 41 8 55 12 52 16 76 20 120 3 25 8 79 13 120 10 94 10 523 0 610 -4 36
-9 85 -12 110 -3 25 -9 74 -15 110 -6 36 -12 79 -15 95 -6 47 -15 97 -25 135
-5 19 -12 51 -14 70 -3 19 -13 62 -22 95 -9 33 -18 67 -19 75 -2 8 -4 15 -5
15 -2 0 -5 14 -20 75 -6 25 -14 54 -19 65 -5 11 -19 52 -31 90 -26 80 -87 250
-100 280 -5 11 -26 61 -47 110 -20 50 -59 134 -85 188 -26 54 -48 101 -48 106
0 5 -7 14 -15 21 -9 7 -13 15 -11 18 3 3 -3 17 -12 31 -10 14 -26 42 -37 63
-10 20 -26 47 -36 59 l-17 23 0 -24z"/>
</g>
</svg>
